<svg width="417" height="291" viewBox="0 0 417 291" fill="none" xmlns="http://www.w3.org/2000/svg">
<g clip-path="url(#clip0_36_1355)">
<path d="M208.365 167.969C199.091 167.969 195 168.805 195 168.805V167.133V153.897V145.295V136.694V130.82C195 129.562 196.687 128.722 197.531 128.303L197.531 128.303C197.696 128.221 197.99 128.123 198.375 128.018C199.96 127.587 202.187 127.099 204.295 127.099C204.824 127.099 206.221 127.044 206.812 127.048C208.264 127.057 209.876 126.936 211.461 127.048C212.319 127.109 213.147 127.099 213.991 127.202C215.162 127.346 216.325 127.378 217.363 127.517C218.948 127.729 220.225 128.381 220.734 129.142C221.578 130.401 222 130.82 222 137.953V167.133V169C222 169 217.639 167.969 208.365 167.969Z" fill="url(#paint0_linear_36_1355)"/>
<path d="M195 153.897C195 156.917 195 165.731 195 167.133C195 168.535 195 168.805 195 168.805C195 168.805 199.091 167.969 208.365 167.969C217.639 167.969 222 169 222 169C222 169 222 167.584 222 167.133M195 153.897C195 150.12 195 139.631 195 136.694M195 153.897V145.295V136.694M195 136.694C195 133.757 195 132.079 195 130.82M195 136.694V130.82M195 130.82C195 129.561 196.688 128.722 197.531 128.303C197.696 128.221 197.99 128.123 198.375 128.018C199.96 127.587 202.187 127.099 204.295 127.099C204.824 127.099 206.221 127.044 206.812 127.048C208.264 127.057 209.876 126.936 211.461 127.048C212.319 127.109 213.147 127.099 213.991 127.202C215.162 127.346 216.325 127.378 217.363 127.517C218.948 127.729 220.225 128.381 220.734 129.142C221.578 130.401 222 130.82 222 137.953M222 137.953C222 143.659 222 165.175 222 167.133M222 137.953C222 143.032 222 162.053 222 167.133" stroke="#563301" stroke-width="0.8"/>
<path d="M176.895 217.202C176.799 222.549 177.661 243.577 178.068 243.966C178.468 244.738 179.593 246.593 180.895 247.839C182.522 249.397 188.287 251.032 192.431 250.727C196.575 250.422 223.054 250.912 228.019 251.004C232.984 251.096 240.079 247.789 240.569 243.595C241.059 239.402 240.921 224.118 241.417 219.543C241.914 214.967 242.005 209.92 242.59 200.462C243.149 191.412 243.693 185.201 242.541 180.213C240.671 172.111 223.775 168.142 208.392 168.142C194.695 168.142 185.573 171.691 180.536 176.009C178.157 178.049 176.744 179.76 176.282 182.425C175.82 185.091 175.868 188.347 176.075 193.883C176.282 199.418 176.992 211.855 176.895 217.202Z" fill="#A71263" stroke="#84063B" stroke-width="0.8"/>
<path d="M157.305 186.288C157.305 188.433 156.295 192.067 156.295 192.067C156.295 192.067 157.785 194.479 158.602 195.912C158.944 195.211 159.603 193.904 160.943 189.531C162.284 185.157 156.887 180.841 156.887 180.841C156.887 180.841 157.305 183.471 157.305 186.288Z" fill="#C0936A"/>
<path d="M259.302 193.541C259.302 193.541 258.884 188.932 258.884 186.837C258.884 185.366 259.302 182.228 259.302 182.228C259.302 182.228 258.884 179.296 258.884 178.876C257.741 179.156 255.289 181.818 255.289 185.856C255.289 189.893 259.302 193.541 259.302 193.541Z" fill="#C0936A"/>
<path d="M210.972 269.575C210.972 273.78 209.666 286 209.666 286C209.666 286 215.108 286 220.13 285.581C225.153 285.162 230.528 283.905 230.528 283.905C230.441 283.064 230.528 279.015 230.528 276.309C230.528 269.464 230.947 268.387 233.879 262.079C236.812 255.771 239.325 254.441 242.257 250.656C245.189 246.871 249.393 243.518 252.729 239.722C256.126 235.857 258.174 231.311 258.593 228.788C259.012 226.265 259.755 221.639 259.85 221.507C261.266 219.541 262.713 217.843 264.458 216.593C267.39 214.49 267.809 211.967 268.646 209.023C269.484 206.079 270.741 201.874 272.416 198.509L272.417 198.508C273.386 196.562 274.775 193.773 275.936 191.36C275.332 191.301 274.041 190.865 273.706 189.59C273.287 187.996 274.69 185.981 275.799 184.737C276.079 184.422 276.911 183.53 277.473 183.342C276.216 183.762 273.307 183.305 271.194 185.156C267.846 188.089 266.418 193.261 266.418 193.261C266.418 193.261 265.966 193.947 265.581 194.527C264.743 195.789 262.651 198.717 261.771 201.608C261.157 203.628 261.154 204.972 260.934 206.654C259.479 207.495 258.465 208.355 257.803 208.757C256.567 209.507 256.128 210.018 254.452 210.859C253.195 211.701 251.971 212.178 250.017 213.649C244.991 217.434 244.792 217.434 242.059 220.377C239.903 222.699 237.51 224.863 236.812 225.844C237.649 222.901 238.906 220.377 240.582 217.854C241.853 215.939 242.769 214.751 243.869 212.636C242.641 212.217 239.664 210.828 240.333 209.283C241.058 207.607 241.477 207.188 242.314 205.931C242.797 205.206 243.475 204.438 244.299 203.802C243.432 203.979 241.833 203.626 240.383 204.397C237.565 205.896 233.676 209.553 232.024 211.672C230.485 213.394 228.997 215.651 227.177 218.695C224.664 222.901 226.043 221.633 222.692 226.68C222.299 227.271 220.082 229.789 219.762 230.234C217.354 233.588 216.943 233.601 214.689 235.857C213.015 237.533 208.56 241.304 208.829 246.332C209.031 250.103 208.794 251.355 209.666 254.856C210.504 258.22 210.972 265.369 210.972 269.575Z" fill="#C0936A"/>
<path d="M156.928 211.415L159.615 212.247C160.899 212.892 161.532 213.151 163.625 214.349C163.613 213.508 163.206 209.739 161.532 203.873C159.773 197.711 159.059 196.713 158.602 195.912C157.785 194.479 156.295 192.067 156.295 192.067C156.295 192.067 157.305 188.433 157.305 186.288C157.305 183.471 156.887 180.841 156.887 180.841C156.887 180.841 157.724 176.308 156.468 172.285C155.462 169.061 153.957 168.933 153.264 168.514C153.538 169.528 153.538 171.623 153.12 173.299C152.714 174.925 150.778 174.556 150.609 174.556C150.537 176.097 150.323 176.304 150.232 177.348C150.012 179.872 147.538 191.714 147.301 194.236C148.138 196.54 151.068 198.007 153.161 201.359C154.724 203.862 156.865 210.588 156.928 211.415Z" fill="#C0936A"/>
<path d="M275.936 191.36C276.783 189.601 277.054 189.227 277.473 188.37C277.921 187.452 279.661 184.46 279.984 183.761C280.192 183.311 278.31 183.061 277.473 183.342C276.911 183.53 276.079 184.422 275.799 184.737C274.69 185.981 273.287 187.996 273.706 189.59C274.041 190.865 275.332 191.301 275.936 191.36Z" fill="#84064A"/>
<path d="M265.911 176.648C265.911 174.546 265.753 175.38 265.665 171.609C265.576 167.838 265.335 167 265.335 167C264.497 167 263.66 167.419 263.242 167.838C262.823 168.257 262.344 169.095 262.344 169.933C262.344 170.771 262.232 173.438 262.651 175.533C262.986 177.209 264.963 176.975 265.911 176.648Z" fill="#84064A"/>
<path d="M243.869 212.636C244.218 211.963 244.84 211.071 245.244 210.158C246.46 207.412 246.959 207.086 247.402 206.151C248.031 205.034 248.927 203.683 248.592 203.454C248.174 203.168 247.583 202.76 246.081 203.035C245.706 203.104 244.596 203.573 244.299 203.802C243.475 204.438 242.797 205.206 242.314 205.931C241.477 207.188 241.058 207.607 240.333 209.283C239.664 210.828 242.641 212.217 243.869 212.636Z" fill="#84064A"/>
<path d="M136 183.342L136.837 185.856C136.837 185.856 138.146 189.183 138.511 190.046C138.818 190.185 139.299 190.103 139.968 189.767C140.806 189.348 140.604 188.37 140.604 187.951C140.604 187.477 139.421 184.514 138.93 183.761C137.894 183.342 136.837 182.923 136 183.342Z" fill="#84064A"/>
<path d="M173.67 215.606C175.193 214.57 176.338 212.46 175.763 211.415C175.082 210.178 175.188 209.983 174.351 208.726C173.832 207.946 172.258 206.212 171.84 205.793C168.91 205.13 168.073 205.968 168.073 205.968C168.073 205.968 169.485 208.901 170.74 210.996C172.587 214.078 173.67 215.606 173.67 215.606Z" fill="#84064A"/>
<path d="M150.65 170.352C150.65 170.352 150.709 172.373 150.609 174.556C150.778 174.556 152.714 174.925 153.12 173.299C153.538 171.623 153.538 169.528 153.264 168.514C153.023 167.622 151.487 167 150.65 167V170.352Z" fill="#84064A"/>
<path d="M208.829 286C208.829 285.159 206.989 276.576 206.989 271.95C206.989 267.324 207.827 260.175 208.246 257.231C208.556 254.861 208.246 254.574 208.246 248.708C208.246 244.015 204.336 240.105 202.381 238.737C201.965 238.274 201.545 237.846 201.125 237.466C199.381 235.89 197.616 234.374 195.854 231.947C195.349 231.252 194.658 230.134 194.18 229.433C192.321 226.705 189.332 222.822 188.36 221.065C186.266 217.28 184.72 212.59 182.077 210.131C179.365 207.608 178.696 206.39 175.344 205.549C174.474 205.287 173.095 204.955 171.84 205.793C172.258 206.212 173.832 207.946 174.351 208.726C175.188 209.983 175.082 210.178 175.763 211.415C176.338 212.46 175.193 214.57 173.67 215.606C173.67 215.606 178.086 222.747 179.762 227.373C176.969 224.57 171.255 218.997 167.81 216.86C165.099 215.178 166.555 216.025 163.625 214.349C161.532 213.151 160.899 212.892 159.615 212.247L156.928 211.415C156.865 210.588 154.724 203.862 153.161 201.359C151.068 198.007 148.138 196.54 147.301 194.236C145.779 190.046 145.627 187.951 143.115 185.856C140.797 183.921 140.245 184.292 138.93 183.761C139.421 184.514 140.604 187.477 140.604 187.951C140.604 188.37 140.806 189.348 139.968 189.767C139.299 190.103 138.818 190.185 138.511 190.046C139.316 191.943 139.332 192.453 139.968 193.73C141.644 197.095 143.115 200.102 145.208 204.711C147.242 209.191 148.765 214.337 149.603 216.439C150.353 218.322 154.799 221.892 157.224 224.429C157.336 228.354 158.65 237.214 163.007 241.251C168.452 246.297 170.625 248.693 173.898 252.185C177.05 255.549 179.982 257.231 182.077 262.278C184.171 267.324 184.171 269.427 185.207 272.791C185.961 275.239 185.948 280.963 185.808 283.486C185.808 283.486 192.087 285.162 196.691 285.581C201.295 286 208.829 286 208.829 286Z" fill="#C0936A"/>
<path d="M257.803 208.757C258.465 208.355 259.479 207.495 260.934 206.654C261.154 204.972 261.157 203.628 261.771 201.608C262.651 198.717 264.743 195.789 265.581 194.527C265.966 193.947 266.418 193.261 266.418 193.261C266.418 193.261 266.418 188.094 266.418 185.58L265.911 176.648C264.963 176.975 262.986 177.209 262.651 175.533C262.232 173.438 262.344 170.771 262.344 169.933C261.395 170.086 260.559 170.488 259.721 172.591C259.461 173.242 258.465 176.263 258.884 178.876C258.884 179.296 259.302 182.228 259.302 182.228C259.302 182.228 258.884 185.366 258.884 186.837C258.884 188.932 259.302 193.541 259.302 193.541L258.047 197.312C258.047 197.312 256.791 201.084 256.372 202.76C255.954 204.436 255.831 205.306 255.535 206.95C255.136 209.171 254.452 209.203 254.452 210.859C256.128 210.018 256.567 209.507 257.803 208.757Z" fill="#C0936A"/>
<path d="M236.812 225.844C237.649 222.901 238.906 220.377 240.582 217.854C241.853 215.939 242.769 214.751 243.869 212.636M236.812 225.844C235.974 228.788 235.504 234.949 234.666 237.472C233.996 239.49 232.991 244.481 232.572 246.724M236.812 225.844C237.51 224.863 239.903 222.699 242.059 220.377C244.792 217.434 244.991 217.434 250.017 213.649C251.971 212.178 253.195 211.701 254.452 210.859M277.473 183.342C276.216 183.762 273.307 183.305 271.194 185.156C267.846 188.089 266.418 193.261 266.418 193.261M277.473 183.342C276.911 183.53 276.079 184.422 275.799 184.737C274.69 185.981 273.287 187.996 273.706 189.59C274.041 190.865 275.332 191.301 275.936 191.36M277.473 183.342C278.31 183.061 280.192 183.311 279.984 183.761C279.661 184.46 277.921 187.452 277.473 188.37C277.054 189.227 276.783 189.601 275.936 191.36M249.746 240.416C251.561 237.612 255.694 231.248 257.705 228.22C258.723 226.687 258.886 222.847 259.85 221.507M259.85 221.507C261.266 219.541 262.713 217.843 264.458 216.593C267.39 214.49 267.809 211.967 268.646 209.023C269.484 206.079 270.741 201.874 272.416 198.509L272.417 198.508C273.386 196.562 274.775 193.773 275.936 191.36M259.85 221.507C259.755 221.639 259.012 226.265 258.593 228.788C258.174 231.311 256.126 235.857 252.729 239.722C249.393 243.518 245.189 246.871 242.257 250.656C239.325 254.441 236.812 255.771 233.879 262.079C230.947 268.387 230.528 269.464 230.528 276.309C230.528 279.015 230.441 283.064 230.528 283.905C230.528 283.905 225.153 285.162 220.13 285.581C215.108 286 209.666 286 209.666 286C209.666 286 210.972 273.78 210.972 269.575C210.972 265.369 210.504 258.22 209.666 254.856C208.794 251.355 209.031 250.103 208.829 246.332C208.56 241.304 213.015 237.533 214.689 235.857C216.943 233.601 217.354 233.588 219.762 230.234C220.082 229.789 222.299 227.271 222.692 226.68C226.043 221.633 224.664 222.901 227.177 218.695C228.997 215.651 230.485 213.394 232.024 211.672C233.676 209.553 237.565 205.896 240.383 204.397C241.833 203.626 243.432 203.979 244.299 203.802M254.452 210.859C256.128 210.018 256.567 209.507 257.803 208.757C258.465 208.355 259.479 207.495 260.934 206.654C261.154 204.972 261.157 203.628 261.771 201.608C262.651 198.717 264.743 195.789 265.581 194.527C265.966 193.947 266.418 193.261 266.418 193.261M254.452 210.859C254.452 209.203 255.136 209.171 255.535 206.95C255.831 205.306 255.954 204.436 256.372 202.76C256.791 201.084 258.047 197.312 258.047 197.312L259.302 193.541M259.302 193.541C259.302 193.541 258.884 188.932 258.884 186.837C258.884 185.366 259.302 182.228 259.302 182.228C259.302 182.228 258.884 179.296 258.884 178.876M259.302 193.541C259.302 193.541 255.289 189.893 255.289 185.856C255.289 181.818 257.741 179.156 258.884 178.876M262.344 169.933C261.395 170.086 260.559 170.488 259.721 172.591C259.461 173.242 258.465 176.263 258.884 178.876M262.344 169.933C262.344 170.771 262.232 173.438 262.651 175.533C262.986 177.209 264.963 176.975 265.911 176.648M262.344 169.933C262.344 169.095 262.823 168.257 263.242 167.838C263.66 167.419 264.497 167 265.335 167C265.335 167 265.576 167.838 265.665 171.609C265.753 175.38 265.911 174.546 265.911 176.648M265.911 176.648C265.911 178.751 266.418 183.477 266.418 185.58M265.911 176.648L266.418 185.58M266.418 185.58C266.418 188.094 266.418 193.261 266.418 193.261M173.67 215.606C173.67 215.606 178.086 222.747 179.762 227.373M173.67 215.606C175.193 214.57 176.338 212.46 175.763 211.415C175.082 210.178 175.188 209.983 174.351 208.726C173.832 207.946 172.258 206.212 171.84 205.793M173.67 215.606C173.67 215.606 172.587 214.078 170.74 210.996C169.485 208.901 168.073 205.968 168.073 205.968C168.073 205.968 168.91 205.13 171.84 205.793M179.762 227.373C181.437 231.999 182.725 233.687 183.563 237.472C184.233 240.5 184.959 245.462 185.238 247.565M179.762 227.373C176.969 224.57 171.255 218.997 167.81 216.86C165.099 215.178 166.555 216.025 163.625 214.349M147.301 194.236C145.779 190.046 145.627 187.951 143.115 185.856C140.797 183.921 140.245 184.292 138.93 183.761M147.301 194.236C147.538 191.714 150.012 179.872 150.232 177.348C150.323 176.304 150.537 176.097 150.609 174.556M147.301 194.236C148.138 196.54 151.068 198.007 153.161 201.359C154.724 203.862 156.865 210.588 156.928 211.415L159.615 212.247C160.899 212.892 161.532 213.151 163.625 214.349M167.646 240.416C165.132 236.21 159.687 227.295 158.011 225.276C157.793 225.013 157.506 224.725 157.224 224.429M157.224 224.429C154.799 221.892 150.353 218.322 149.603 216.439C148.765 214.337 147.242 209.191 145.208 204.711C143.115 200.102 141.644 197.095 139.968 193.73C139.332 192.453 139.316 191.943 138.511 190.046M157.224 224.429C157.336 228.354 158.65 237.214 163.007 241.251C168.452 246.297 170.625 248.693 173.898 252.185C177.05 255.549 179.982 257.231 182.077 262.278C184.171 267.324 184.171 269.427 185.207 272.791C185.961 275.239 185.948 280.963 185.808 283.486C185.808 283.486 192.087 285.162 196.691 285.581C201.295 286 208.829 286 208.829 286C208.829 285.159 206.989 276.576 206.989 271.95C206.989 267.324 207.827 260.175 208.246 257.231C208.556 254.861 208.246 254.574 208.246 248.708C208.246 244.015 204.336 240.105 202.381 238.737C201.965 238.274 201.545 237.846 201.125 237.466C199.381 235.89 197.616 234.374 195.854 231.947C195.349 231.252 194.658 230.134 194.18 229.433C192.321 226.705 189.332 222.822 188.36 221.065C186.266 217.28 184.72 212.59 182.077 210.131C179.365 207.608 178.696 206.39 175.344 205.549C174.474 205.287 173.095 204.955 171.84 205.793M153.264 168.514C153.957 168.933 155.462 169.061 156.468 172.285C157.724 176.308 156.887 180.841 156.887 180.841M153.264 168.514C153.538 169.528 153.538 171.623 153.12 173.299C152.714 174.925 150.778 174.556 150.609 174.556M153.264 168.514C153.023 167.622 151.487 167 150.65 167V170.352C150.65 170.352 150.709 172.373 150.609 174.556M163.625 214.349C163.613 213.508 163.206 209.739 161.532 203.873C159.773 197.711 159.059 196.713 158.602 195.912M156.887 180.841C156.887 180.841 157.305 183.471 157.305 186.288C157.305 188.433 156.295 192.067 156.295 192.067C156.295 192.067 157.785 194.479 158.602 195.912M156.887 180.841C156.887 180.841 162.284 185.157 160.943 189.531C159.603 193.904 158.944 195.211 158.602 195.912M138.93 183.761C137.894 183.342 136.837 182.923 136 183.342L136.837 185.856C136.837 185.856 138.146 189.183 138.511 190.046M138.93 183.761C139.421 184.514 140.604 187.477 140.604 187.951C140.604 188.37 140.806 189.348 139.968 189.767C139.299 190.103 138.818 190.185 138.511 190.046M243.869 212.636C244.218 211.963 244.84 211.071 245.244 210.158C246.46 207.412 246.959 207.086 247.402 206.151C248.031 205.034 248.927 203.683 248.592 203.454C248.174 203.168 247.583 202.76 246.081 203.035C245.706 203.104 244.596 203.573 244.299 203.802M243.869 212.636C242.641 212.217 239.664 210.828 240.333 209.283C241.058 207.607 241.477 207.188 242.314 205.931C242.797 205.206 243.475 204.438 244.299 203.802" stroke="#563300" stroke-width="0.5"/>
<path d="M77.2436 183.314C77.2436 183.314 77.2187 183.356 77.169 183.438C77.1624 183.525 77.1293 183.674 77.0698 183.886L76.6764 183.916C76.4606 183.897 66.4335 178.035 46.5951 166.33C48.0274 168.069 49.3485 169.841 50.5584 171.646C51.7284 173.405 52.8105 175.177 53.8046 176.963L53.7849 177.223L53.2473 177.435L52.8638 177.335C51.85 175.809 50.9908 174.535 50.2861 173.514C49.5383 172.49 48.9683 171.699 48.5761 171.142C47.7884 170.07 46.9958 169.064 46.1983 168.122C45.3609 167.133 44.5385 166.232 43.7311 165.42C43.4487 165.134 43.2061 164.894 43.0035 164.702C42.8008 164.51 42.6413 164.321 42.525 164.137C42.0863 163.619 41.8452 163.075 41.8015 162.506L41.7599 160.479C41.7599 160.479 41.7616 160.457 41.7649 160.414C41.7714 160.328 41.8012 160.222 41.8542 160.096L42.1779 160.125L42.8056 160.443L77.0464 179.903C77.2026 180.135 77.2684 181.272 77.2436 183.314Z" fill="#F09FA8"/>
<path d="M81.5105 158.895C80.9714 161.128 79.716 162.638 77.7444 163.424C76.0217 164.102 74.0147 164.114 71.7233 163.458C68.5153 162.54 64.9047 160.247 60.8916 156.577C58.8535 154.688 57.0232 152.768 55.4008 150.818C53.7885 148.825 52.3943 146.76 51.218 144.623C48.5719 139.903 47.6557 135.858 48.4695 132.488C49.4155 128.571 52.2007 127.273 56.8252 128.596C58.5333 129.085 60.342 129.895 62.2512 131.027C64.1289 132.104 66.1122 133.482 68.2012 135.161C72.5985 138.715 76.0405 142.537 78.5273 146.626C81.3604 151.309 82.3548 155.399 81.5105 158.895ZM80.4438 157.78C81.0846 155.126 79.7557 151.683 76.457 147.452C73.6298 143.852 69.9499 140.277 65.4174 136.729C61.1775 133.444 57.7244 131.421 55.058 130.658C52.0167 129.788 50.2214 130.49 49.6721 132.765C49.0719 135.25 50.4217 138.698 53.7213 143.11C56.5912 146.903 60.2507 150.562 64.6999 154.086C68.9509 157.509 72.3263 159.578 74.826 160.293C77.9507 161.187 79.8233 160.349 80.4438 157.78Z" fill="#F09FA8"/>
<path d="M87.8449 135.295C86.9499 137.41 85.4744 138.678 83.4183 139.098C81.6234 139.456 79.6606 139.101 77.53 138.034C74.547 136.538 71.3977 133.605 68.0819 129.235C66.4022 126.99 64.9305 124.753 63.667 122.523C62.4203 120.254 61.3987 117.952 60.602 115.618C58.795 110.455 58.5669 106.278 59.9178 103.085C61.4881 99.3735 64.4233 98.5955 68.7233 100.751C70.3117 101.547 71.9452 102.68 73.6239 104.15C75.2808 105.561 76.9913 107.289 78.7554 109.335C82.4656 113.661 85.1982 118.078 86.9535 122.586C88.9492 127.746 89.2463 131.983 87.8449 135.295ZM86.9866 133.994C88.0504 131.48 87.3197 127.824 84.7946 123.028C82.6261 118.942 79.6203 114.726 75.7771 110.381C72.1762 106.351 69.1361 103.715 66.6568 102.472C63.8288 101.055 61.959 101.424 61.0472 103.579C60.0509 105.933 60.801 109.598 63.2973 114.574C65.4757 118.859 68.4478 123.154 72.2135 127.46C75.8024 131.629 78.7591 134.296 81.0834 135.461C83.9889 136.918 85.9566 136.428 86.9866 133.994Z" fill="#F09FA8"/>
<path d="M104.273 107.95C101.765 110.706 99.4797 110.972 97.4169 108.748C96.6212 107.891 96.1763 106.808 96.0821 105.5C96.0168 104.096 96.407 102.93 97.2529 102C97.8653 101.327 98.5529 101.021 99.3154 101.081C100.019 101.141 100.592 101.41 101.034 101.886C101.742 102.649 102.054 103.621 101.972 104.802C101.947 105.791 101.643 106.606 101.06 107.247C100.564 107.792 99.9351 108.098 99.1732 108.166C100.349 108.735 101.607 108.282 102.949 106.808C103.328 106.391 103.619 105.975 103.822 105.559C105.565 102.168 106.177 98.2562 105.658 93.8231C105.474 92.2285 105.038 89.917 104.349 86.8888C103.631 83.8288 102.573 80.0844 101.173 75.6555C100.519 73.6164 99.8647 71.7048 99.2112 69.921C98.5575 68.0733 97.9629 66.3529 97.4276 64.76C94.8693 56.986 93.5247 51.6633 93.3938 48.792C91.8732 49.6289 90.4421 50.7845 89.1005 52.2588C85.0756 56.6815 82.7442 62.7077 82.1061 70.3373C81.7734 74.3596 81.9668 78.0284 82.6862 81.3437C83.316 84.3083 84.2644 86.4737 85.5316 87.8399C87.0051 89.4284 88.4272 89.4695 89.798 87.9632C91.0521 86.5851 91.9927 84.0118 92.6198 80.2434C93.2466 76.4112 92.937 72.9663 91.6911 69.9088C91.5429 69.5585 91.5416 69.3033 91.6875 69.143C91.8922 69.0463 92.0539 69.1253 92.1723 69.38C93.9198 73.1052 94.466 76.9957 93.811 81.0514C93.2398 84.2452 92.2105 86.6593 90.7231 88.2938C89.4981 89.6399 88.1234 90.3165 86.5989 90.3238C85.0452 90.3631 83.6348 89.6997 82.3676 88.3336C79.4796 85.2201 78.3554 80.0081 78.995 72.6975C79.7181 64.4612 82.7775 57.3785 88.1731 51.4495C88.9898 50.5521 89.836 49.7184 90.7119 48.9484C91.5878 48.1784 92.4935 47.5039 93.4289 46.9251C93.6458 43.2225 94.7313 40.2975 96.6854 38.1502C97.4438 37.317 98.3787 36.6424 99.4904 36.1265C99.7829 35.9975 99.9737 36.0445 100.063 36.2674C100.123 36.5224 100.079 36.6981 99.9333 36.7946C99.2895 37.0529 98.6614 37.5186 98.0489 38.1916C96.3865 40.0184 95.5481 42.5114 95.5338 45.6706C99.1017 43.8028 102.587 43.1481 105.991 43.7063C109.746 44.2628 113.156 46.1931 116.221 49.4972C116.516 49.8149 116.825 50.1485 117.15 50.498C117.444 50.8157 117.724 51.1813 117.99 51.5949C122.268 57.2227 124.513 63.7696 124.724 71.2356C124.995 78.7652 122.945 85.4123 118.574 91.177C118.4 91.4331 118.21 91.6733 118.006 91.8976C117.831 92.1538 117.642 92.394 117.438 92.6183C114.492 95.8553 112.061 96.4412 110.146 94.3762C109.674 93.8678 109.32 93.2632 109.082 92.5623C108.997 99.3915 107.394 104.521 104.273 107.95ZM116.685 91.6167C116.831 91.4565 116.977 91.2962 117.123 91.136C117.298 90.9437 117.458 90.7355 117.604 90.5115C121.303 85.4839 122.829 79.6052 122.181 72.8752C121.567 66.9427 119.341 61.2733 115.504 55.8668C115.12 55.3261 114.737 54.8174 114.353 54.3405C113.94 53.8319 113.528 53.3552 113.115 52.9104C107.663 47.0329 101.835 45.2896 95.6313 47.6805C95.7838 48.9243 96.217 50.6294 96.931 52.7959C97.6449 54.9624 98.6689 57.5902 100.003 60.6791C100.655 62.2077 101.337 63.7362 102.048 65.2645C102.788 66.7608 103.484 68.2732 104.136 69.8018C105.055 71.8716 106.11 74.8183 107.301 78.6419C107.569 79.566 107.808 80.5541 108.018 81.6062C108.228 82.6582 108.424 83.7901 108.606 85.0018L108.649 84.858C108.995 83.58 109.399 82.2378 109.862 80.8315C110.324 79.4253 111.006 78.002 111.908 76.5618C112.635 75.3138 113.421 74.1613 114.267 73.1042C115.111 71.9834 116.015 70.9579 116.978 70.028C117.183 69.8036 117.358 69.7709 117.506 69.9297C117.683 70.1203 117.654 70.3438 117.421 70.6002C117.275 70.7605 117.1 70.9528 116.896 71.1771C116.692 71.3376 116.516 71.498 116.371 71.6583C115.175 72.9723 114.025 74.7169 112.921 76.892C111.527 79.7068 110.763 82.2792 110.627 84.6093C110.411 88.5672 110.893 91.1816 112.072 92.4524C113.368 93.8503 114.906 93.5717 116.685 91.6167Z" fill="#F09FA8"/>
<path d="M131.376 75.9426C130.895 73.6962 130.337 70.8553 129.701 67.4197C129.1 63.9577 128.399 60.0266 127.6 55.6264C127.403 54.6882 127.283 53.9086 127.24 53.2876C127.231 52.6401 127.247 52.1098 127.288 51.6969C127.38 50.8082 127.839 50.1276 128.665 49.655L129.853 48.9858C130.117 48.8371 130.347 48.7149 130.542 48.619C130.748 48.4604 130.908 48.3101 131.022 48.168C130.571 49.06 130.437 50.7168 130.62 53.1383C130.813 55.497 131.305 58.5527 132.095 62.3053C132.143 61.5059 132.186 60.4636 132.227 59.1785C132.244 57.8571 132.333 56.2895 132.494 54.4758C132.687 52.4739 132.973 50.5363 133.353 48.6631C133.732 46.7899 134.42 45.47 135.416 44.7034C136.205 44.0954 136.949 43.9317 137.647 44.2124C138.344 44.493 138.917 44.9785 139.366 45.6689C139.909 46.5046 140.084 47.4874 139.891 48.6172C139.698 49.7471 139.31 50.5367 138.726 50.9861C138.486 51.1711 138.193 51.3149 137.847 51.4174C137.536 51.4934 137.309 51.4224 137.168 51.2044C137.05 51.0228 136.978 50.8328 136.952 50.6346C136.903 50.4001 136.807 50.1738 136.665 49.9558C136.311 49.4108 135.894 49.3233 135.413 49.6934C135.241 49.8256 135.036 50.0651 134.798 50.412C134.571 50.6962 134.382 51.2776 134.232 52.1564C133.884 53.8413 133.581 55.7921 133.322 58.0088C133.073 60.1628 132.982 62.4406 133.049 64.8423C133.15 67.2175 133.529 69.6241 134.186 72.062C134.369 72.7392 134.042 73.4264 133.208 74.1236C132.087 75.0951 131.477 75.7014 131.376 75.9426Z" fill="#F09FA8"/>
<path d="M148.934 35.9101C147.623 36.5835 146.683 36.2642 146.114 34.9523C145.545 33.6404 145.878 32.6676 147.111 32.0338C148.421 31.3604 149.361 31.6797 149.93 32.9916C150.499 34.3034 150.167 35.2763 148.934 35.9101ZM151.081 63.0279C149.964 63.6023 149.155 63.313 148.655 62.1602C148.344 61.4446 148.153 60.3518 148.081 58.8817C147.979 55.8225 147.906 52.9917 147.862 50.3894C147.817 47.7872 147.801 45.4134 147.813 43.2681C147.842 43.0099 147.805 42.7615 147.702 42.523C147.46 41.9664 146.951 41.4988 146.174 41.1203L149.328 39.4266C150.407 38.8721 151.067 38.8731 151.309 39.4296C151.378 39.5886 151.417 39.7873 151.426 40.0257C151.418 40.2244 151.425 40.5124 151.447 40.8898L151.638 56.3246C151.667 57.9138 151.881 59.1655 152.277 60.0799C152.691 61.034 153.256 61.5215 153.972 61.5425L151.081 63.0279Z" fill="#F09FA8"/>
<path d="M163.08 57.9267C163.394 55.6203 163.794 52.7688 164.281 49.3722C164.768 45.9757 165.409 42.0365 166.204 37.5547C166.367 36.603 166.546 35.8046 166.741 35.1594C166.936 34.5142 167.142 34.0013 167.359 33.6207C167.793 32.8594 168.467 32.343 169.381 32.0714C169.464 32.0467 169.609 32.0035 169.817 31.9418C170.025 31.88 170.326 31.8357 170.721 31.8086C171.313 31.6778 171.749 31.5482 172.029 31.4197C170.724 32.8012 169.442 37.5633 168.182 45.7062C168.501 44.8435 168.97 43.8684 169.59 42.7809C170.241 41.639 171.016 40.3698 171.916 38.9734C172.484 38.0366 173.146 37.1172 173.902 36.2152C174.647 35.2711 175.486 34.3443 176.418 33.4349C178.521 31.3195 180.154 30.089 181.317 29.7433C181.607 29.6569 181.82 29.6162 181.956 29.6212C181.586 30.9955 181.248 32.3156 180.941 33.5812C180.675 34.8345 180.414 36.0186 180.158 37.1334C178.93 42.5569 178.397 46.2155 178.56 48.1093C178.592 48.4158 178.619 48.7014 178.641 48.9659C178.704 49.2181 178.762 49.4492 178.815 49.6594C179.089 50.7522 179.621 51.1813 180.41 50.9468C181.697 50.564 182.902 48.7833 184.024 45.6045L185.054 45.9757C183.748 49.8417 182.015 52.0957 179.855 52.7376C177.238 53.5154 175.587 52.5383 174.901 49.8063C174.342 47.5787 174.865 43.878 176.468 38.7044C176.715 37.9084 176.78 37.2793 176.664 36.8169C176.537 36.3126 176.246 36.1283 175.789 36.2641C175.332 36.3999 174.793 36.8311 174.172 37.5577C173.582 38.2299 172.904 39.1765 172.139 40.3974C170.93 42.3377 169.898 44.5412 169.044 47.0081C168.179 49.433 167.513 52.1151 167.046 55.0543C166.955 55.7588 166.406 56.3285 165.399 56.7632C164.101 57.2844 163.328 57.6722 163.08 57.9267Z" fill="#F09FA8"/>
<path d="M195.703 49.8931C194.021 50.062 192.531 49.6674 191.232 48.7092C190.534 48.1697 190.001 47.5265 189.634 46.7796C189.305 45.9852 189.097 45.0698 189.01 44.0336C188.673 40.0611 189.976 35.9457 192.92 31.6873C195.397 28.0854 198.123 26.135 201.099 25.8361C202.09 25.7365 202.953 25.9111 203.687 26.3599C204.471 26.8908 204.903 27.6312 204.984 28.5811C205.185 30.9559 203.813 33.4888 200.867 36.1798C199.937 37.0135 198.677 37.7932 197.086 38.5192C195.327 39.3056 194.037 39.7399 193.218 39.8222C192.739 41.3509 192.569 42.9357 192.708 44.5765C192.946 47.3831 194.1 48.6824 196.17 48.4745C198.886 48.2016 201.28 46.1757 203.351 42.3969L203.577 41.9823L204.714 42.3252L204.553 42.7333C203.659 45.0005 202.434 46.713 200.88 47.8707C199.326 49.0284 197.6 49.7025 195.703 49.8931ZM193.513 38.6822C194.246 38.6086 195.239 38.2693 196.492 37.6644C197.2 37.2885 197.862 36.8954 198.479 36.485C199.14 36.0702 199.711 35.621 200.191 35.1372C202.394 32.9128 203.402 30.6995 203.216 28.4974C203.135 27.5475 202.75 27.1072 202.06 27.1765C200.853 27.2978 199.147 28.9715 196.942 32.1977C195.82 33.8346 194.677 35.9961 193.513 38.6822Z" fill="#F09FA8"/>
<path d="M218.701 50.3856C218.011 50.3235 217.448 50.0118 217.012 49.4506C216.7 48.9874 216.562 48.5182 216.598 48.0429C216.67 47.0923 217.098 46.326 217.881 45.7439C218.567 45.2836 219.278 45.0865 220.011 45.1525C220.745 45.2186 221.308 45.5302 221.7 46.0876C222.013 46.5508 222.151 47.02 222.115 47.4953C222.046 48.4027 221.597 49.1671 220.767 49.7885C220.167 50.2565 219.478 50.4556 218.701 50.3856Z" fill="#F09FA8"/>
<path d="M240.137 53.1977C236.866 51.6002 235.804 49.4915 236.951 46.8715C237.49 45.641 238.36 44.7887 239.56 44.3148C240.777 43.8011 241.95 43.8201 243.079 44.3716C243.897 44.771 244.418 45.3626 244.642 46.1466C244.784 46.7941 244.733 47.3957 244.49 47.9515C244.281 48.4278 243.975 48.8566 243.572 49.2379C243.225 49.5985 242.768 49.833 242.201 49.9413C241.317 50.2325 240.466 50.1784 239.649 49.779C238.948 49.4367 238.468 48.9132 238.209 48.2087C238.134 49.569 238.991 50.6866 240.783 51.5615C241.25 51.7897 241.704 51.9393 242.146 52.0104C245.894 52.7329 249.674 52.1943 253.487 50.3946C256.793 48.7809 261.699 45.347 268.206 40.0928L284.546 26.8969C285.413 26.2121 286.304 25.6353 287.218 25.1663C288.189 24.6767 289.144 24.2759 290.084 23.9641C288.587 23.2811 286.943 22.7189 285.151 22.2774C283.398 21.8549 281.515 21.5135 279.502 21.2532C275.42 20.7531 272.03 20.8319 269.332 21.4895C264.178 22.6824 261.027 24.5888 259.88 27.2087C259.203 28.7568 259.74 29.9588 261.492 30.8146C263.556 31.8225 266.012 32.2032 268.861 31.9566C271.464 31.7339 273.941 31.0408 276.294 29.8771C276.463 29.815 276.606 29.8125 276.723 29.8696C276.995 30.0027 277.088 30.1685 277.001 30.367C276.323 31.9151 273.672 32.7886 269.048 32.9874C264.787 33.2192 261.762 32.8977 259.97 32.0229C256.349 30.2543 255.156 27.9607 256.39 25.1423C256.963 23.8323 258.077 22.6902 259.733 21.7159C261.705 20.5589 264.007 19.7801 266.64 19.3797C269.29 18.9396 272.291 18.8873 275.641 19.2228C281.442 19.7913 286.726 21.2159 291.494 23.4963C294.885 22.5509 297.886 22.7153 300.494 23.9894C301.585 24.5219 302.521 25.2442 303.303 26.1563C303.463 26.3308 303.5 26.5173 303.413 26.7158C303.152 27.3112 302.909 27.4336 302.685 27.083C302.218 26.4215 301.518 25.8625 300.583 25.406C298.714 24.4932 296.61 24.3329 294.271 24.9252C297.364 26.8212 299.378 28.9133 300.315 31.2015C301.048 33.1978 301.032 35.0692 300.267 36.8158C299.12 39.4358 296.863 41.5137 293.497 43.0496C290.243 44.5442 286.796 45.077 283.156 44.648C288.034 48.1871 289.535 52.1003 287.658 56.3874C286.094 59.9601 282.78 62.5094 277.716 64.0355C272.237 65.6477 266.626 65.2925 260.885 62.9699C260.595 62.8765 260.294 62.7537 259.982 62.6015C259.71 62.4684 259.418 62.3258 259.106 62.1736C254.006 59.6823 252.161 56.8781 253.573 53.7612C248.198 55.1352 243.719 54.9473 240.137 53.1977ZM275.122 40.6518C275.935 40.9527 276.72 41.2641 277.478 41.5857C278.291 41.8867 279.048 42.2083 279.749 42.5506C282.895 43.4609 286.115 43.1783 289.408 41.7027C292.813 40.1858 295.141 37.9983 296.392 35.1402C297.07 33.5921 297.205 32.0436 296.796 30.4947C296.292 28.5141 294.961 26.804 292.803 25.3644C291.733 25.7573 290.689 26.3073 289.67 27.0144C288.708 27.7009 287.741 28.5056 286.77 29.4286L275.122 40.6518ZM259.199 60.9902C259.978 61.3706 260.878 61.6897 261.899 61.9477C262.921 62.2056 264.094 62.4412 265.418 62.6545C269.292 63.1976 272.958 62.6511 276.416 61.0151C279.986 59.3378 282.336 57.209 283.465 54.6287C284.351 52.6043 284.315 50.6352 283.357 48.7217C282.295 46.613 280.187 44.7884 277.034 43.2479C276.06 42.7725 274.983 42.3186 273.801 41.8861C273.142 42.5279 272.288 43.2913 271.239 44.1762C270.229 45.0801 269.022 46.0565 267.617 47.1052C267.136 47.4484 266.627 47.802 266.09 48.1659C265.552 48.5298 264.967 48.8945 264.334 49.2601C266.24 49.2269 268.131 49.3318 270.01 49.5748C271.945 49.7971 273.895 50.1472 275.86 50.625C276.457 50.7722 276.892 50.9123 277.165 51.0455C277.593 51.2547 277.772 51.4387 277.703 51.5974C277.529 51.9944 276.778 52.037 275.449 51.7254C269.662 50.5854 264.8 50.7883 260.862 52.3342C258.423 53.263 256.917 54.3824 256.343 55.6924C256.048 56.3672 255.993 57.0871 256.178 57.8521C256.557 59.1454 257.564 60.1915 259.199 60.9902Z" fill="#F09FA8"/>
<path d="M287.056 75.0594C285.749 73.9876 284.942 72.6269 284.636 70.9774C284.487 70.0723 284.523 69.2068 284.743 68.3808C285.022 67.547 285.465 66.7077 286.071 65.8628C288.396 62.6241 291.981 60.4473 296.827 59.3324C300.917 58.3805 304.118 58.8527 306.43 60.7488C307.201 61.3809 307.702 62.128 307.935 62.9901C308.151 63.9502 307.981 64.8174 307.425 65.5919C306.035 67.5281 303.423 68.4612 299.587 68.3912C298.387 68.3576 296.986 68.0475 295.384 67.4609C293.623 66.7995 292.424 66.2078 291.788 65.6856C290.46 66.4978 289.315 67.5728 288.355 68.9105C286.713 71.1987 286.696 73.0024 288.304 74.3214C290.415 76.0527 293.427 76.2308 297.342 74.8556L297.771 74.7036L298.36 75.774L297.982 75.9672C295.88 77.0403 293.903 77.4596 292.048 77.225C290.194 76.9904 288.53 76.2685 287.056 75.0594ZM292.734 65.0353C293.303 65.5025 294.23 65.9547 295.513 66.3918C296.259 66.6126 296.985 66.7883 297.69 66.9189C298.428 67.0769 299.124 67.1448 299.779 67.1226C302.784 67.0147 304.931 66.063 306.22 64.2677C306.776 63.4932 306.786 62.8861 306.249 62.4464C305.311 61.677 303.016 61.7235 299.362 62.5861C297.506 63.0213 295.297 63.8377 292.734 65.0353Z" fill="#F09FA8"/>
<path d="M307.621 93.2274C306.926 92.575 306.533 91.8212 306.442 90.966C306.27 89.7975 306.726 88.5364 307.808 87.1825C308.512 86.3026 309.452 85.4376 310.629 84.5876C308.013 85.5085 305.633 86.0295 303.489 86.1507C301.342 86.2084 299.794 85.7924 298.846 84.9027C298.024 84.1317 297.688 83.1345 297.836 81.9112C297.926 80.6922 298.499 79.4226 299.554 78.1027C302.125 74.8873 306.12 72.8308 311.538 71.9332C312.441 71.773 313.366 71.7228 314.313 71.7828C315.261 71.8428 316.215 71.998 317.176 72.2484C319.13 72.779 320.739 73.6374 322.003 74.8236C323.551 76.2768 324.351 77.9748 324.401 79.9179C324.433 80.3624 324.327 80.737 324.083 81.0416C323.623 81.617 323.163 81.5701 322.703 80.9009C323.361 79.3859 323.105 78.0798 321.936 76.9825C320.609 75.737 318.247 75.2675 314.849 75.574C313.622 75.7255 312.399 75.9405 311.181 76.219C309.99 76.4636 308.79 76.7887 307.581 77.1942C304.274 78.3559 302.012 79.6983 300.794 81.2213C299.874 82.372 299.824 83.3329 300.646 84.104C301.562 84.964 303.216 85.2129 305.607 84.8506C306.92 84.661 308.398 84.3002 310.04 83.768C311.682 83.2358 313.505 82.5472 315.508 81.702C316.338 81.3555 317.042 81.0978 317.62 80.9289C318.197 80.76 318.646 80.6481 318.966 80.5933C319.905 80.5263 320.708 80.8359 321.376 81.5222L322.202 82.5641C322.532 83.0512 322.866 83.3943 323.204 83.5935C322.677 83.6313 321.937 83.7958 320.985 84.0872C320.091 84.3744 318.972 84.8054 317.628 85.3801C316.198 85.9928 314.944 86.593 313.866 87.1806C312.787 87.7683 311.901 88.3581 311.206 88.9503C310.873 89.2294 310.568 89.5065 310.293 89.7814C310.045 90.0225 309.826 90.2615 309.637 90.4985C308.933 91.3784 308.802 92.026 309.245 92.4412C309.877 93.0343 311.341 93.1052 313.637 92.654L314.03 92.5781L314.328 93.6577L313.895 93.7844C310.976 94.5993 308.885 94.4136 307.621 93.2274Z" fill="#F09FA8"/>
<path d="M316.936 102.964C315.05 100.931 314.982 98.9525 316.732 97.0295C317.344 96.3565 318.338 95.6497 319.712 94.9093C321.116 94.1367 322.856 93.3148 324.934 92.4433L332.658 89.2474C333.536 88.8604 334.417 89.1434 335.301 90.0965L337.953 92.9558C336.164 92.6771 333.996 93.0065 331.449 93.944C330.484 94.2996 329.284 94.7521 327.85 95.3014C326.474 95.8504 324.88 96.4802 323.065 97.1909C321.368 97.8372 320.067 98.657 319.163 99.6506C318.23 100.676 318.087 101.538 318.736 102.237C319.443 103 320.837 103.296 322.918 103.127C326.405 102.823 332.319 101.072 340.659 97.8731C341.596 97.5495 342.462 97.8166 343.258 98.6744L345.645 101.248C343.885 101.065 341.424 101.555 338.264 102.719C333.844 104.367 330.715 105.882 328.874 107.263C328.67 107.423 328.48 107.568 328.304 107.696C328.159 107.857 328.013 108.017 327.867 108.177C326.73 109.427 326.559 110.481 327.354 111.339C328.209 112.26 330.042 112.427 332.854 111.839L333.211 112.89C329.286 113.739 326.543 113.321 324.981 111.637C323.331 109.858 323.541 107.831 325.612 105.555C326.399 104.69 327.378 103.935 328.547 103.292C322.634 105.043 318.763 104.934 316.936 102.964Z" fill="#F09FA8"/>
<path d="M330.646 125.943C329.111 123.581 329.563 121.462 332.001 119.585C332.481 119.215 333.003 118.868 333.565 118.544C334.151 118.257 334.772 118.024 335.429 117.845C341.487 116.07 346.464 114.692 350.36 113.71L348.057 110.167L349.615 109.949L351.811 113.328L356.267 111.86C357.844 111.354 358.859 111.173 359.312 111.314C359.649 111.437 360.113 111.952 360.703 112.86L362.175 115.244C361.119 114.966 360.061 114.963 359 115.234L353.866 116.489L356.558 120.631L355 120.849L352.414 116.871C351.699 117.039 350.985 117.208 350.27 117.377C349.579 117.582 348.847 117.763 348.074 117.922C345.999 118.375 344.08 118.871 342.318 119.41C340.28 119.998 338.547 120.542 337.119 121.041C335.716 121.577 334.647 122.072 333.913 122.528C332.136 123.678 331.602 124.798 332.31 125.888C332.972 126.906 334.804 127.348 337.809 127.215L337.513 128.424C334.045 128.478 331.756 127.651 330.646 125.943Z" fill="#F09FA8"/>
<path d="M318.861 138.77C317.93 136.623 317.914 134.686 318.815 132.959C319.28 132.185 320.053 131.521 321.132 130.967C321.98 130.531 322.648 130.333 323.137 130.374L323.686 131.477C322.966 131.555 322.317 131.743 321.739 132.04C319.658 133.11 319.16 134.897 320.247 137.401C321.195 139.588 323.835 141.002 328.167 141.644C329.78 141.885 331.652 142.017 333.783 142.04C335.914 142.063 338.296 141.958 340.928 141.723C342.668 141.607 344.392 141.45 346.098 141.254C347.821 141.098 349.544 140.942 351.267 140.785C349.046 140.663 347.221 140.531 345.793 140.39C344.382 140.288 343.396 140.187 342.834 140.087C339.239 139.406 337.011 138.072 336.149 136.084C335.183 133.858 336.107 132.022 338.921 130.576C340.771 129.626 342.926 129.053 345.387 128.858C348.945 128.585 352.347 128.441 355.592 128.426C356.591 128.448 357.324 128.995 357.789 130.069L359.16 133.229C357.907 132.512 355.779 132.171 352.778 132.206C346.136 132.216 341.659 132.815 339.347 134.004C338.075 134.657 337.646 135.461 338.06 136.415C338.853 138.244 342.271 139.332 348.313 139.678C348.784 139.679 350.038 139.691 352.075 139.714C354.15 139.717 356.972 139.701 360.539 139.667C361.538 139.688 362.27 140.236 362.736 141.309L364.391 145.126C363.782 144.807 362.778 144.448 361.379 144.048C360.74 143.988 359.912 143.927 358.896 143.866C357.897 143.844 356.707 143.872 355.327 143.95C353.548 144.086 351.123 144.311 348.054 144.624C345.024 144.918 341.324 145.19 336.955 145.442C334.666 145.597 332.666 145.604 330.955 145.462C329.222 145.38 327.786 145.219 326.645 144.979C322.869 144.099 320.275 142.03 318.861 138.77Z" fill="#F09FA8"/>
<path d="M344.307 158.895C344.124 156.737 344.63 155.009 345.824 153.713C346.822 152.655 348.075 152.05 349.584 151.899C351.783 151.678 352.941 152.258 353.058 153.64C353.102 154.158 352.948 154.653 352.597 155.123C352.202 155.598 351.725 155.864 351.164 155.92C350.819 155.955 350.532 155.897 350.302 155.746C349.564 155.254 348.786 155.049 347.966 155.131C347.147 155.214 346.501 155.54 346.027 156.11C345.515 156.727 345.295 157.468 345.368 158.332C345.445 159.238 345.816 160.028 346.482 160.702C347.472 161.604 348.764 161.975 350.36 161.815C351.739 161.676 353.26 161.153 354.923 160.246C355.328 159.9 355.858 159.477 356.511 158.976C357.168 158.518 357.949 157.982 358.853 157.369C359.345 157.015 359.844 156.747 360.35 156.565C360.904 156.423 361.439 156.325 361.956 156.273C363.767 156.091 365.268 156.615 366.46 157.846C367.698 159.115 368.409 160.829 368.592 162.988C368.643 163.592 368.628 164.182 368.546 164.756C368.468 165.373 368.277 165.937 367.972 166.447C367.323 167.513 366.46 168.101 365.382 168.209C364.908 168.257 364.469 168.214 364.066 168.08C362.912 167.804 362.281 167.018 362.171 165.723C362.05 164.298 362.722 163.512 364.188 163.365C364.62 163.321 364.991 163.349 365.304 163.449C365.746 163.535 366.218 163.966 366.719 164.744C367.254 164.385 367.486 163.796 367.417 162.975C367.354 162.241 367.136 161.719 366.762 161.408C365.769 160.463 364.582 160.059 363.202 160.198C362.254 160.293 361.241 160.656 360.164 161.287C359.999 161.391 358.712 162.369 356.304 164.222C354.67 165.475 353.272 166.16 352.108 166.277C350.254 166.463 348.542 165.764 346.973 164.18C345.36 162.6 344.472 160.838 344.307 158.895Z" fill="#F09FA8"/>
</g>
<defs>
<linearGradient id="paint0_linear_36_1355" x1="223.386" y1="110.853" x2="193.654" y2="111.282" gradientUnits="userSpaceOnUse">
<stop offset="0.12768" stop-color="#563300"/>
<stop offset="0.245054" stop-color="#7F4B02"/>
<stop offset="0.350054" stop-color="#DCB28C"/>
<stop offset="0.600054" stop-color="#7F4B02"/>
<stop offset="0.720054" stop-color="#C0936A"/>
<stop offset="0.805054" stop-color="#C0936A"/>
<stop offset="0.905054" stop-color="#BF7103" stop-opacity="0.96"/>
</linearGradient>
<clipPath id="clip0_36_1355">
<rect width="417" height="291" fill="white"/>
</clipPath>
</defs>
</svg>
